<svg width="36" height="36" viewBox="0 0 36 36" fill="none" xmlns="http://www.w3.org/2000/svg">
<path d="M31.5003 11.3941C31.5003 9.90455 31.4125 9.45005 31.1651 8.98655C30.9907 8.65453 30.7191 8.3837 30.3866 8.2103C29.9253 7.9628 29.4708 7.87505 27.9813 7.87505H8.0193C6.5298 7.87505 6.0753 7.9628 5.6118 8.2103C5.27978 8.38466 5.00894 8.65628 4.83555 8.9888C4.58805 9.45005 4.5003 9.90455 4.5003 11.3941V24.6061C4.5003 26.0956 4.58805 26.5501 4.83555 27.0136C5.0099 27.3456 5.28152 27.6164 5.61405 27.7898C6.0753 28.0373 6.5298 28.1251 8.0193 28.1251H27.9813C29.4708 28.1251 29.9253 28.0373 30.3888 27.7898C30.7208 27.6154 30.9917 27.3438 31.1651 27.0113C31.4125 26.5501 31.5003 26.0956 31.5003 24.6061V11.3941ZM33.7503 11.3941V24.6061C33.7503 26.6131 33.5411 27.3398 33.1496 28.0711C32.7581 28.8068 32.1821 29.3828 31.4486 29.7743C30.7151 30.1658 29.9861 30.3751 27.9836 30.3751H8.01705C6.01005 30.3751 5.2833 30.1658 4.55205 29.7743C3.82645 29.3911 3.23297 28.7984 2.8488 28.0733C2.4573 27.3398 2.24805 26.6108 2.24805 24.6083V11.3918C2.24805 9.3848 2.4573 8.65805 2.8488 7.9268C3.2403 7.19105 3.8163 6.61505 4.5498 6.22355C5.2833 5.83205 6.0123 5.6228 8.0148 5.6228H27.9791C29.9861 5.6228 30.7128 5.83205 31.4441 6.22355C32.1798 6.61505 32.7558 7.19105 33.1473 7.92455C33.5388 8.65805 33.7481 9.38705 33.7481 11.3896L33.7503 11.3941Z" fill="black"/>
<path d="M2.25 11.25H33.75V13.5H2.25V11.25ZM2.25 15.75H33.75V18H2.25V15.75ZM6.75 22.5H15.75V24.75H6.75V22.5Z" fill="black"/>
</svg>
